<svg xmlns="http://www.w3.org/2000/svg" viewBox="0 0 209 352" role="img" aria-label="Illinois regions map">
  <style>
    .region-link { cursor: pointer; text-decoration: none; }
    .region {
      stroke: rgba(255,255,255,0.28);
      stroke-width: 0.8;
      transition: filter 0.18s ease, transform 0.18s ease;
    }
    .region-link:hover .region,
    .region-link:focus .region {
      filter: brightness(1.12);
    }
    .label {
      fill: #f7f7f7;
      font-family: Arial, Helvetica, sans-serif;
      font-size: 6.3px;
      font-weight: 600;
      text-anchor: middle;
      pointer-events: none;
      paint-order: stroke;
      stroke: rgba(27,38,68,0.18);
      stroke-width: 0.6;
      letter-spacing: 0.1px;
    }
  </style>
<defs>
    <path id="illinois-shape" d="M 120.0 329.5 L 115.0 323.5 L 113.5 324.0 L 114.0 327.5 L 110.5 325.0 L 110.5 322.0 L 107.5 319.0 L 106.5 314.0 L 104.5 312.0 L 106.0 308.5 L 108.5 308.0 L 108.5 304.0 L 104.5 298.0 L 104.5 295.0 L 106.5 294.0 L 104.5 292.0 L 104.5 288.0 L 98.0 285.5 L 97.5 281.0 L 96.0 281.5 L 90.0 276.5 L 86.0 278.5 L 83.5 276.0 L 84.0 274.5 L 85.5 275.0 L 85.0 272.5 L 82.0 272.5 L 66.5 259.0 L 66.5 249.0 L 70.5 245.0 L 70.5 241.0 L 74.5 236.0 L 73.5 229.0 L 78.5 223.0 L 64.0 214.5 L 62.0 214.5 L 57.0 220.5 L 53.5 218.0 L 53.5 213.0 L 51.5 210.0 L 52.5 202.0 L 48.5 197.0 L 49.5 196.0 L 47.0 195.5 L 40.0 188.5 L 39.0 189.5 L 36.5 187.0 L 37.5 185.0 L 31.5 181.0 L 32.5 180.0 L 22.5 170.0 L 22.5 167.0 L 19.5 163.0 L 21.5 159.0 L 17.5 155.0 L 17.5 141.0 L 19.5 136.0 L 23.5 134.0 L 23.5 124.0 L 25.5 123.0 L 25.0 121.5 L 32.0 120.5 L 35.5 117.0 L 37.5 108.0 L 42.5 103.0 L 42.5 94.0 L 35.5 86.0 L 37.5 84.0 L 36.5 83.0 L 38.5 77.0 L 40.0 75.5 L 44.0 76.5 L 47.0 73.5 L 54.0 74.5 L 58.0 70.5 L 65.0 69.5 L 69.5 66.0 L 70.5 57.0 L 76.5 54.0 L 75.5 53.0 L 77.5 49.0 L 77.5 37.0 L 76.0 34.5 L 70.0 32.5 L 65.5 28.0 L 65.5 23.0 L 56.5 16.0 L 58.0 14.5 L 176.0 15.5 L 176.5 20.0 L 174.5 26.0 L 182.5 40.0 L 184.5 51.0 L 188.5 57.0 L 191.5 193.0 L 189.0 193.5 L 187.5 196.0 L 189.5 201.0 L 186.5 204.0 L 186.5 207.0 L 192.5 216.0 L 191.5 221.0 L 193.5 228.0 L 192.0 231.5 L 188.5 233.0 L 186.5 239.0 L 187.5 241.0 L 182.5 243.0 L 183.5 246.0 L 179.5 250.0 L 179.5 253.0 L 177.0 252.5 L 172.5 256.0 L 172.5 259.0 L 175.5 262.0 L 171.5 264.0 L 171.5 272.0 L 167.5 276.0 L 170.5 284.0 L 164.5 290.0 L 169.5 299.0 L 168.0 300.5 L 159.0 301.5 L 156.0 304.5 L 153.0 303.5 L 150.5 306.0 L 149.5 313.0 L 153.5 318.0 L 151.0 323.5 L 148.0 323.5 L 145.0 320.5 L 140.0 319.5 L 132.0 314.5 L 127.0 314.5 L 119.5 324.0 L 120.5 329.0 L 120.0 329.5 Z"/>
    <clipPath id="clip-illinois">
      <use href="#illinois-shape"/>
    </clipPath>
    <filter id="shadow" x="-30%" y="-20%" width="170%" height="170%">
      <feDropShadow dx="8" dy="10" stdDeviation="9" flood-color="#07133d" flood-opacity="0.65"/>
    </filter>
  </defs>

  <g filter="url(#shadow)">
    <g clip-path="url(#clip-illinois)">
      <a href="region.html?region=Northwest%20Illinois" target="_top" class="region-link" aria-label="Northwest region">
        <path id="northwest" class="region" data-region="Northwest Illinois" d="M 106.0 91.5 L 99.0 91.5 L 99.5 88.0 L 98.0 86.5 L 90.0 86.5 L 89.0 91.5 L 65.0 91.5 L 64.0 81.5 L 46.0 81.5 L 37.5 80.0 L 40.0 75.5 L 44.0 76.5 L 46.0 74.5 L 55.0 74.5 L 59.0 70.5 L 64.0 70.5 L 69.5 66.0 L 70.5 58.0 L 76.5 54.0 L 77.5 37.0 L 76.0 34.5 L 69.0 31.5 L 65.5 28.0 L 66.5 24.0 L 60.0 17.5 L 56.5 16.0 L 58.0 14.5 L 137.0 15.5 L 138.5 17.0 L 138.5 34.0 L 143.5 35.0 L 143.5 63.0 L 142.0 64.5 L 120.0 64.5 L 118.5 66.0 L 119.5 82.0 L 113.0 82.5 L 110.0 87.5 L 107.0 86.5 L 106.5 91.0 L 106.0 91.5 Z" fill="#9EAB71"/>
        <text class="label" x="92" y="58">Northwest</text>
      </a>
      <a href="region.html?region=Northeast%20Illinois" target="_top" class="region-link" aria-label="Northeast region">
        <path id="northeast" class="region" data-region="Northeast Illinois" d="M 129.0 104.5 L 124.5 104.0 L 124.0 94.5 L 112.0 94.5 L 112.0 91.5 L 106.5 91.0 L 106.5 87.0 L 110.0 87.5 L 113.0 82.5 L 119.5 82.0 L 118.5 66.0 L 120.0 64.5 L 142.0 64.5 L 143.5 63.0 L 143.5 35.0 L 138.5 34.0 L 138.0 15.5 L 176.5 16.0 L 174.5 26.0 L 182.5 40.0 L 184.5 51.0 L 188.5 57.0 L 189.5 98.0 L 160.0 100.5 L 158.0 93.5 L 132.0 93.5 L 129.5 95.0 L 129.5 104.0 L 129.0 104.5 Z" fill="#A9985A"/>
        <text class="label" x="155" y="58">Northeast</text>
      </a>
      <a href="region.html?region=West%20Central%20Illinois" target="_top" class="region-link" aria-label="West Central region">
        <path id="west-central" class="region" data-region="West Central Illinois" d="M 74.0 148.5 L 73.0 146.5 L 64.0 146.5 L 63.0 141.5 L 54.0 140.5 L 44.0 140.5 L 43.0 145.5 L 22.0 145.5 L 17.5 144.0 L 19.5 137.0 L 23.5 134.0 L 24.5 131.0 L 24.5 122.0 L 32.0 120.5 L 35.5 118.0 L 35.5 114.0 L 38.5 107.0 L 42.5 104.0 L 42.5 93.0 L 35.5 86.0 L 38.0 80.5 L 64.0 81.5 L 65.0 91.5 L 89.0 91.5 L 90.0 86.5 L 98.0 86.5 L 99.5 88.0 L 99.0 91.5 L 111.0 91.5 L 112.0 94.5 L 124.5 95.0 L 124.0 104.5 L 105.5 105.0 L 102.5 111.0 L 102.5 117.0 L 98.5 124.0 L 88.5 128.0 L 88.5 130.0 L 80.5 137.0 L 80.5 140.0 L 74.5 146.0 L 74.5 148.0 L 74.0 148.5 Z" fill="#74AB80"/>
        <text class="label" x="58" y="119"><tspan x="58" dy="0">West</tspan><tspan x="58" dy="8">Central</tspan></text>
      </a>
      <a href="region.html?region=Central%20Illinois" target="_top" class="region-link" aria-label="Central region">
        <path id="central" class="region" data-region="Central Illinois" d="M 121.0 228.5 L 100.5 228.0 L 98.5 215.0 L 96.5 214.0 L 96.5 185.0 L 95.0 183.5 L 86.5 184.0 L 83.5 173.0 L 83.5 151.0 L 71.0 153.5 L 68.5 150.0 L 74.5 148.0 L 74.5 146.0 L 80.5 140.0 L 80.5 137.0 L 88.5 130.0 L 89.0 127.5 L 98.5 124.0 L 102.5 117.0 L 102.5 111.0 L 106.0 104.5 L 129.0 104.5 L 130.0 94.5 L 158.0 93.5 L 159.0 100.5 L 189.0 99.5 L 190.5 105.0 L 190.5 162.0 L 189.0 163.5 L 174.0 163.5 L 173.5 168.0 L 171.5 169.0 L 172.5 185.0 L 170.5 186.0 L 170.5 191.0 L 169.0 192.5 L 151.0 192.5 L 150.0 201.5 L 136.0 201.5 L 135.5 219.0 L 140.0 218.5 L 140.5 223.0 L 122.0 223.5 L 120.5 225.0 L 121.5 228.0 L 121.0 228.5 Z" fill="#9AA797"/>
        <text class="label" x="130" y="158">Central</text>
      </a>
      <a href="region.html?region=Lower%20Illinois%20River" target="_top" class="region-link" aria-label="Lower Illinois region">
        <path id="lower-illinois" class="region" data-region="Lower Illinois River" d="M 57.0 220.5 L 53.5 218.0 L 53.5 213.0 L 51.5 210.0 L 52.5 202.0 L 48.5 197.0 L 49.5 196.0 L 47.0 195.5 L 40.0 188.5 L 39.0 189.5 L 36.5 187.0 L 37.5 185.0 L 31.5 181.0 L 32.5 180.0 L 23.5 171.0 L 23.5 168.0 L 19.5 163.0 L 21.5 159.0 L 18.5 156.0 L 18.0 144.5 L 43.0 145.5 L 44.0 140.5 L 63.0 141.5 L 64.0 146.5 L 73.5 147.0 L 73.0 148.5 L 69.0 148.5 L 67.5 150.0 L 71.0 154.5 L 80.0 151.5 L 83.5 152.0 L 83.5 175.0 L 86.5 184.0 L 95.5 185.0 L 95.5 214.0 L 71.0 213.5 L 70.0 217.5 L 62.0 214.5 L 57.5 220.0 L 57.0 220.5 Z" fill="#57AE4E"/>
        <text class="label" x="57" y="182"><tspan x="57" dy="0">Lower</tspan><tspan x="57" dy="8">Illinois</tspan></text>
      </a>
      <a href="region.html?region=American%20Bottom" target="_top" class="region-link" aria-label="American Bottom region">
        <path id="american-bottom" class="region" data-region="American Bottom" d="M 96.0 281.5 L 90.0 276.5 L 86.0 278.5 L 83.5 276.0 L 84.0 274.5 L 85.5 275.0 L 85.0 272.5 L 82.0 272.5 L 66.5 259.0 L 66.5 249.0 L 70.5 245.0 L 70.5 241.0 L 74.5 236.0 L 73.5 229.0 L 78.5 223.0 L 70.5 218.0 L 71.0 214.5 L 98.5 215.0 L 98.5 220.0 L 100.5 222.0 L 100.5 233.0 L 95.5 234.0 L 95.5 258.0 L 100.5 259.0 L 100.5 274.0 L 96.5 281.0 L 96.0 281.5 Z" fill="#688F9D"/>
        <text class="label" x="84" y="244"><tspan x="84" dy="0">American</tspan><tspan x="84" dy="8">Bottom</tspan></text>
      </a>
      <a href="region.html?region=Wabash%20River" target="_top" class="region-link" aria-label="Wabash River region">
        <path id="wabash-river" class="region" data-region="Wabash River" d="M 169.0 275.5 L 155.5 275.0 L 155.0 256.5 L 140.5 256.0 L 140.5 219.0 L 135.5 219.0 L 135.5 202.0 L 150.0 201.5 L 151.0 192.5 L 169.0 192.5 L 170.5 191.0 L 170.5 186.0 L 172.5 185.0 L 171.5 169.0 L 173.5 168.0 L 174.0 163.5 L 190.5 163.0 L 191.5 193.0 L 189.0 193.5 L 187.5 196.0 L 189.5 201.0 L 186.5 204.0 L 186.5 207.0 L 192.5 216.0 L 191.5 221.0 L 193.5 228.0 L 192.0 231.5 L 188.5 233.0 L 186.5 239.0 L 187.5 241.0 L 182.5 243.0 L 183.5 246.0 L 179.5 250.0 L 179.5 253.0 L 177.0 252.5 L 172.5 256.0 L 172.5 259.0 L 175.5 262.0 L 171.5 264.0 L 172.5 267.0 L 170.5 268.0 L 171.5 272.0 L 169.5 275.0 L 169.0 275.5 Z" fill="#A37871"/>
        <text class="label" x="158" y="225"><tspan x="158" dy="0">Wabash</tspan><tspan x="158" dy="8">River</tspan></text>
      </a>
      <a href="region.html?region=Southern%20Illinois" target="_top" class="region-link" aria-label="Southern region">
        <path id="southern" class="region" data-region="Southern Illinois" d="M 120.0 329.5 L 115.0 323.5 L 113.5 324.0 L 114.0 327.5 L 110.5 325.0 L 110.5 322.0 L 107.5 319.0 L 106.5 314.0 L 104.5 312.0 L 106.0 308.5 L 108.5 308.0 L 108.5 304.0 L 104.5 298.0 L 104.5 295.0 L 106.5 294.0 L 104.5 292.0 L 104.0 287.5 L 97.5 285.0 L 97.5 279.0 L 100.5 274.0 L 100.5 259.0 L 95.5 258.0 L 95.5 234.0 L 100.5 233.0 L 101.0 228.5 L 121.0 228.5 L 120.5 225.0 L 122.0 223.5 L 140.0 223.5 L 140.5 256.0 L 155.0 256.5 L 155.5 275.0 L 167.0 275.5 L 169.5 279.0 L 168.5 281.0 L 170.5 282.0 L 170.5 284.0 L 164.5 290.0 L 169.5 299.0 L 168.0 300.5 L 159.0 301.5 L 156.0 304.5 L 153.0 303.5 L 150.5 306.0 L 149.5 313.0 L 153.5 318.0 L 151.0 323.5 L 148.0 323.5 L 145.0 320.5 L 140.0 319.5 L 132.0 314.5 L 127.0 314.5 L 119.5 324.0 L 120.5 329.0 L 120.0 329.5 Z" fill="#A17997"/>
        <text class="label" x="125" y="296">Southern</text>
      </a>
    </g>
    <use href="#illinois-shape" fill="none" stroke="#25314e" stroke-width="2.2" stroke-linejoin="round"/>
  </g>
</svg>
